<svg width="30" height="30" viewBox="0 0 30 30" fill="none" xmlns="http://www.w3.org/2000/svg">
<g clip-path="url(#clip0)">
<path d="M29.7763 15.5861C29.709 15.6615 28.0962 17.4523 25.4852 19.2586C21.994 21.6737 18.3683 22.9502 15 22.9502C11.6317 22.9502 8.006 21.6737 4.51486 19.2586C1.90373 17.4523 0.291051 15.6615 0.223726 15.5861C-0.0745755 15.2525 -0.0745755 14.748 0.223726 14.4145C0.291051 14.3391 1.90379 12.5482 4.51486 10.742C8.006 8.3269 11.6317 7.05037 15 7.05037C18.3683 7.05037 21.994 8.3269 25.4852 10.742C28.0963 12.5482 29.709 14.3391 29.7763 14.4145C30.0746 14.7481 30.0746 15.2525 29.7763 15.5861ZM5.55039 12.1631C3.9721 13.2509 2.76694 14.3505 2.10506 14.9999C3.2402 16.1118 5.97584 18.5464 9.48878 20.0099C8.28403 18.6857 7.54873 16.9273 7.54873 15.0003C7.54873 13.0756 8.28227 11.3192 9.48433 9.99554C7.95731 10.6306 6.61358 11.4303 5.55039 12.1631ZM15 9.30682C11.8606 9.30682 9.3065 11.8609 9.3065 15.0003C9.3065 18.1397 11.8606 20.6937 15 20.6937C18.1394 20.6937 20.6935 18.1397 20.6935 15.0003C20.6935 11.8609 18.1394 9.30682 15 9.30682ZM20.5112 9.99067C21.716 11.3148 22.4513 13.0733 22.4513 15.0003C22.4513 16.925 21.7178 18.6814 20.5157 20.0051C22.0427 19.37 23.3865 18.5704 24.4496 17.8375C26.0278 16.7498 27.2329 15.6503 27.895 15.0007C26.7598 13.8888 24.0242 11.4541 20.5112 9.99067Z" fill="#A0ACC0"/>
<path d="M15.0001 17.832C13.4382 17.832 12.1675 16.5613 12.1675 14.9994C12.1675 13.4375 13.4382 12.1668 15.0001 12.1668C15.4855 12.1668 15.879 12.5603 15.879 13.0457C15.879 13.2884 15.7806 13.5081 15.6215 13.6672C15.4625 13.8263 15.2428 13.9246 15.0001 13.9246C14.4075 13.9246 13.9253 14.4068 13.9253 14.9994C13.9253 15.592 14.4075 16.0742 15.0001 16.0742C15.5927 16.0742 16.0749 15.592 16.0749 14.9994C16.0749 14.7567 16.1733 14.537 16.3323 14.3779C16.4914 14.2189 16.7111 14.1205 16.9538 14.1205C17.4392 14.1205 17.8327 14.514 17.8327 14.9994C17.8327 16.5613 16.562 17.832 15.0001 17.832Z" fill="#A0ACC0"/>
</g>
<defs>
<clipPath id="clip0">
<rect width="30" height="30" fill="white" transform="matrix(1 0 0 -1 0 30)"/>
</clipPath>
</defs>
</svg>
